<?xml version="1.0" encoding="iso-8859-1"?>
<!-- Generator: Adobe Illustrator 19.0.0, SVG Export Plug-In . SVG Version: 6.00 Build 0)  -->
<svg version="1.1" id="Capa_1" xmlns="http://www.w3.org/2000/svg" xmlns:xlink="http://www.w3.org/1999/xlink" x="0px" y="0px"
	 viewBox="0 0 511.671 511.671" style="enable-background:new 0 0 511.671 511.671;" xml:space="preserve">
<g>
	<g transform="translate(1 1)">
		<path style="fill:#A4C2F7;" d="M132.9,20.091h356.011c7.305,0,13.227,5.922,13.227,13.227v263.68
			c0,7.305-5.922,13.227-13.227,13.227H132.9c-7.305,0-13.227-5.922-13.227-13.227V33.318
			C119.673,26.013,125.595,20.091,132.9,20.091z"/>
		<path style="fill:#E3E7F2;" d="M475.001,33.318v263.68c0.011,3.511-1.378,6.882-3.861,9.365c-2.483,2.483-5.854,3.873-9.365,3.861
			H132.9c-0.803-0.001-1.604-0.087-2.389-0.256c-0.761-0.108-1.506-0.309-2.219-0.597c-5.163-1.935-8.594-6.859-8.619-12.373V33.318
			c-0.032-3.218,1.157-6.328,3.328-8.704c1.277-1.488,2.885-2.656,4.693-3.413c0.73-0.357,1.505-0.616,2.304-0.768
			c0.947-0.245,1.923-0.359,2.901-0.341h328.875c3.511-0.011,6.882,1.378,9.365,3.861C473.623,26.436,475.013,29.807,475.001,33.318
			z"/>
		<path style="fill:#A4C2F7;" d="M475.001,44.923V33.318c0.011-3.511-1.378-6.882-3.861-9.365c-2.483-2.483-5.854-3.873-9.365-3.862
			l27.136,0c3.804-0.019,7.423,1.635,9.899,4.523L475.001,44.923z"/>
		<path style="fill:#E3E7F2;" d="M475.001,33.318v11.605L351.353,150.566l-27.733,23.723c-7.364,6.143-18.066,6.143-25.429,0
			l-27.733-23.723L123.001,24.614c1.277-1.488,2.885-2.656,4.693-3.413c0.73-0.357,1.505-0.616,2.304-0.768
			c0.947-0.245,1.923-0.359,2.901-0.341h328.875c3.511-0.011,6.882,1.378,9.365,3.861C473.623,26.436,475.013,29.807,475.001,33.318
			z"/>
		<path style="fill:#A4C2F7;" d="M497.444,307.067c-2.378,2.035-5.404,3.155-8.533,3.157l-27.136,0
			c3.511,0.011,6.882-1.379,9.365-3.862c2.483-2.483,3.873-5.854,3.861-9.365v-13.995L497.444,307.067z"/>
		<path style="fill:#E3E7F2;" d="M475.001,283.003v13.995c0.011,3.511-1.378,6.882-3.861,9.365
			c-2.483,2.483-5.854,3.873-9.365,3.861H132.9c-0.803-0.001-1.604-0.087-2.389-0.256c-0.761-0.108-1.506-0.309-2.219-0.597
			c-1.435-0.529-2.764-1.309-3.925-2.304l146.091-156.501l27.733,23.723c7.364,6.143,18.066,6.143,25.429,0l27.733-23.723
			L475.001,283.003z"/>
		<path style="fill:#A4C2F7;" d="M389.583,433.275l-20.224,33.621c-3.928,6.638-9.632,12.047-16.469,15.616
			c-2.424,1.336-5.003,2.368-7.68,3.072c-33.621,9.216-107.691,11.093-226.389-107.605S1.999,185.211,11.215,151.59
			c0.69-2.641,1.692-5.191,2.987-7.595c3.598-6.867,9.034-12.599,15.701-16.555l33.621-20.224c7.693-4.624,17.663-2.367,22.613,5.12
			l29.184,43.776l24.491,36.779c4.924,7.282,3.356,17.134-3.584,22.528l-11.947,9.301l-18.261,14.165
			c-2.741,2.15-4.74,5.104-5.717,8.448c-1.371,4.288-0.908,8.951,1.28,12.885c8.875,15.872,17.237,34.645,58.795,76.203
			s60.331,49.92,76.203,58.795c7.253,3.844,16.215,1.98,21.333-4.437l14.165-18.261l9.301-11.947
			c5.394-6.94,15.246-8.508,22.528-3.584l37.973,25.259l42.581,28.416C391.949,415.613,394.207,425.583,389.583,433.275z"/>
		<path style="fill:#E3E7F2;" d="M371.833,451.025l-18.944,31.488c-2.424,1.336-5.003,2.368-7.68,3.072
			c-33.621,9.216-107.691,11.093-226.389-107.605S1.999,185.211,11.215,151.59c0.69-2.641,1.692-5.191,2.987-7.595l31.573-19.029
			c7.693-4.624,17.663-2.367,22.613,5.12l29.184,43.776l24.491,36.693c2.817,4.154,3.631,9.349,2.219,14.165
			c-1.043,3.334-3.065,6.278-5.803,8.448l-18.176,14.165l-12.032,9.301c-6.528,5.05-8.41,14.099-4.437,21.333
			c8.875,15.872,17.237,34.645,58.795,76.203s60.331,49.92,76.203,58.795c7.234,3.972,16.283,2.09,21.333-4.437l9.301-12.032
			l14.165-18.176c2.17-2.738,5.114-4.76,8.448-5.803c4.816-1.412,10.011-0.598,14.165,2.219l37.888,25.259l42.581,28.416
			C374.2,433.362,376.457,443.332,371.833,451.025z"/>
		<g>
			<path style="fill:#FFFFFF;" d="M14.201,143.995c-1.294,2.404-2.297,4.953-2.987,7.595
				C1.999,185.211,0.121,259.281,118.82,377.979c101.888,101.888,170.837,114.918,209.63,110.737
				c-40.781-4.07-101.649-28.356-184.03-110.737C25.721,259.281,27.599,185.211,36.815,151.59c0.69-2.641,1.692-5.191,2.987-7.595
				c3.598-6.867,9.034-12.599,15.701-16.555l28.826-17.34c-5.394-5.733-14.054-6.933-20.804-2.884l-33.621,20.224
				C23.235,131.397,17.799,137.128,14.201,143.995z"/>
			<path style="fill:#FFFFFF;" d="M145.273,199.291V33.318c0.014-1.512,0.288-3.01,0.811-4.429c0.051-0.145,0.077-0.29,0.128-0.435
				c1.979-5.056,6.859-8.377,12.288-8.363l-25.6,0c-5.429-0.014-10.309,3.307-12.288,8.363c-0.051,0.145-0.077,0.29-0.128,0.435
				c-0.537,1.416-0.826,2.914-0.853,4.429v127.573l21.248,31.872L145.273,199.291z"/>
		</g>
	</g>
	<g>
		<path style="fill:#FFFFFF;" d="M113.787,385.004c-26.855-26.3-50.99-55.24-72.038-86.383
			c-14.596-21.41-26.088-44.779-34.133-69.41c-8.698-25.401-9.974-52.756-3.678-78.857l16.461,4.514
			c-5.421,22.974-4.19,47.016,3.55,69.316c7.561,23.091,18.349,44.996,32.043,65.067c20.411,30.172,43.811,58.209,69.845,83.686
			L113.787,385.004z"/>
		<g>
			<path style="fill:#428DFF;" d="M73.254,336.876h1.63c0.584-0.041,1.159-0.167,1.707-0.375c0.527-0.116,1.034-0.311,1.502-0.58
				c0.491-0.29,0.964-0.609,1.417-0.956c1.717-1.479,2.829-3.539,3.123-5.786c0.1-1.115-0.016-2.239-0.341-3.311
				c-0.965-3.253-3.766-5.625-7.134-6.042c-1.118-0.09-2.243,0.025-3.319,0.341c-3.34,0.878-5.801,3.712-6.204,7.142
				c-0.447,4.742,2.954,8.982,7.68,9.574L73.254,336.876z"/>
			<path style="fill:#428DFF;" d="M489.911,12.712H132.364c-12.012,0.014-21.746,9.748-21.76,21.76V133.1l-16.35-24.533
				c-7.484-11.289-22.535-14.676-34.133-7.68L26.482,121.11C15.47,127.578,7.39,138.059,3.937,150.354
				c-6.293,26.096-5.015,53.445,3.686,78.839c8.046,24.631,19.537,48,34.133,69.41c1.562,2.466,3.115,4.932,4.855,7.245
				c1.314,1.869,3.316,3.139,5.566,3.531c2.25,0.392,4.564-0.126,6.432-1.44c3.777-2.712,4.688-7.948,2.048-11.776
				c-1.707-2.227-3.157-4.582-4.634-6.929c-13.705-20.063-24.504-41.963-32.077-65.05c-7.732-22.293-8.961-46.326-3.541-69.291
				c2.293-8.051,7.61-14.903,14.839-19.123l33.673-20.207c3.773-2.259,8.654-1.159,11.093,2.5l53.734,80.521
				c2.382,3.602,1.599,8.43-1.801,11.093l-30.157,23.458c-9.903,7.597-12.73,21.311-6.639,32.205l2.389,4.335
				c8.533,15.65,19.14,35.123,57.805,73.779s58.129,49.271,73.771,57.805l4.335,2.381c10.897,6.093,24.614,3.266,32.213-6.639
				l23.45-30.148c2.666-3.396,7.49-4.179,11.093-1.801l80.546,53.692c3.659,2.439,4.759,7.321,2.5,11.093l-20.198,33.673
				c-4.218,7.233-11.071,12.553-19.123,14.848c-40.337,11.093-110.933,1.707-218.078-105.446
				c-7.731-8.158-15.71-16.111-23.236-24.439c-3.134-3.444-8.45-3.74-11.947-0.666c-3.533,3.167-3.834,8.596-0.674,12.134
				c7.68,8.533,15.872,16.683,23.791,25.037c89.83,89.805,156.826,113.98,202.999,113.98c10.69,0.049,21.339-1.34,31.659-4.13
				c12.293-3.448,22.775-11.518,29.252-22.519l20.198-33.673c6.968-11.589,3.584-26.609-7.68-34.091l-80.546-53.692
				c-11.049-7.308-25.859-4.905-34.031,5.521l-23.45,30.148c-2.451,3.226-6.897,4.166-10.445,2.21l-4.463-2.458
				c-14.686-8.004-32.964-17.971-69.879-54.886c-3.994-3.994-7.612-7.731-11.008-11.307h333.517
				c11.982,0.009,21.713-9.676,21.76-21.658V34.472C511.657,22.46,501.923,12.726,489.911,12.712z M494.604,298.425
				c-0.028,2.567-2.127,4.627-4.693,4.608H141c-11.083-12.674-20.64-26.604-28.476-41.506l-2.458-4.48
				c-1.96-3.54-1.022-7.982,2.202-10.428l30.157-23.458c10.43-8.17,12.833-22.982,5.521-34.031l-20.275-30.43V34.472
				c-0.014-1.249,0.476-2.451,1.359-3.334c0.883-0.883,2.085-1.373,3.334-1.359h357.547c1.249-0.014,2.451,0.476,3.334,1.359
				c0.883,0.883,1.373,2.085,1.359,3.334V298.425z"/>
			<path style="fill:#428DFF;" d="M472.469,53.859c-2.849-3.748-8.194-4.481-11.947-1.638l-142.618,108.16
				c-4.035,2.932-9.499,2.932-13.534,0L161.804,52.221c-3.756-2.849-9.111-2.113-11.959,1.643
				c-2.849,3.756-2.113,9.111,1.643,11.959l142.583,108.151c10.144,7.494,23.989,7.494,34.133,0L470.83,65.823
				c1.805-1.368,2.992-3.398,3.299-5.642C474.437,57.937,473.839,55.663,472.469,53.859z"/>
			<path style="fill:#428DFF;" d="M238.314,174.691l-87.415,93.611c-3.214,3.447-3.025,8.848,0.422,12.062
				c3.447,3.214,8.848,3.025,12.062-0.422l87.415-93.653c2.888-3.484,2.553-8.617-0.762-11.698
				C246.72,171.51,241.576,171.555,238.314,174.691z"/>
			<path style="fill:#428DFF;" d="M384.524,174.691c-3.214-3.447-8.614-3.637-12.062-0.422c-3.447,3.214-3.637,8.614-0.422,12.062
				l87.39,93.611c3.214,3.447,8.614,3.637,12.062,0.422c3.447-3.214,3.637-8.614,0.422-12.062L384.524,174.691z"/>
		</g>
	</g>
</g>
<g>
</g>
<g>
</g>
<g>
</g>
<g>
</g>
<g>
</g>
<g>
</g>
<g>
</g>
<g>
</g>
<g>
</g>
<g>
</g>
<g>
</g>
<g>
</g>
<g>
</g>
<g>
</g>
<g>
</g>
</svg>
